 <!DOCTYPE svg PUBLIC "-//W3C//DTD SVG 1.1//EN" "http://www.w3.org/Graphics/SVG/1.1/DTD/svg11.dtd">
<svg id="a1975acd-18fa-4218-ada7-cab9c0c5dcef" data-name="Layer 1" xmlns="http://www.w3.org/2000/svg" xmlns:xlink="http://www.w3.org/1999/xlink" width="865.76" height="682.89" viewBox="0 0 865.76 682.89">
<defs>
<clipPath id="fa2f54ac-3c39-4d94-a9bd-30e7126929ae">
<path d="M620.84,48.19l-3.46,8A15.63,15.63,0,0,1,603,65.56h-89.4a15.62,15.62,0,0,1-14.33-9.4l-3.46-8a15.64,15.64,0,0,0-14.34-9.4H419.69a11.37,11.37,0,0,0-11.37,11.38V632.73a11.37,11.37,0,0,0,11.37,11.37H697a11.37,11.37,0,0,0,11.37-11.37V50.17A11.37,11.37,0,0,0,697,38.79H635.17A15.64,15.64,0,0,0,620.84,48.19Z" fill="#0071f2" data-primary="true"/>
</clipPath>
<style xmlns="http://www.w3.org/1999/xhtml">*, ::after, ::before { box-sizing: border-box; }
img, svg { vertical-align: middle; }
</style>
<style xmlns="http://www.w3.org/1999/xhtml">*, body, html { -webkit-font-smoothing: antialiased; }
img, svg { max-width: 100%; }
</style>
</defs>
<path d="M308.52,401.64S321.39,412.27,322.8,447v16.64L283.14,468l.79-12.21Z" fill="#0071f2" data-primary="true"/>
<g opacity="0.2">
<path d="M308.52,401.64S321.39,412.27,322.8,447v16.64L283.14,468l.79-12.21Z"/>
</g>
<rect x="389.71" y="20.19" width="337.26" height="642.52" rx="10.02" fill="#2f2e41" data-secondary="true"/>
<path d="M563.92,45.87a5.58,5.58,0,1,1-5.58-5.58A5.58,5.58,0,0,1,563.92,45.87Z" fill="#0071f2" stroke="#1a2e35" stroke-linecap="round" stroke-linejoin="round" data-primary="true"/>
<path d="M620.84,48.19l-3.46,8A15.63,15.63,0,0,1,603,65.56h-89.4a15.62,15.62,0,0,1-14.33-9.4l-3.46-8a15.64,15.64,0,0,0-14.34-9.4H419.69a11.37,11.37,0,0,0-11.37,11.38V632.73a11.37,11.37,0,0,0,11.37,11.37H697a11.37,11.37,0,0,0,11.37-11.37V50.17A11.37,11.37,0,0,0,697,38.79H635.17A15.64,15.64,0,0,0,620.84,48.19Z" fill="#0071f2" data-primary="true"/>
<g clip-path="url(#fa2f54ac-3c39-4d94-a9bd-30e7126929ae)">
<path d="M620.84,48.19l-3.46,8A15.63,15.63,0,0,1,603,65.56h-89.4a15.62,15.62,0,0,1-14.33-9.4l-3.46-8a15.64,15.64,0,0,0-14.34-9.4H419.69a11.37,11.37,0,0,0-11.37,11.38V632.73a11.37,11.37,0,0,0,11.37,11.37H697a11.37,11.37,0,0,0,11.37-11.37V50.17A11.37,11.37,0,0,0,697,38.79H635.17A15.64,15.64,0,0,0,620.84,48.19Z" fill="#fff" opacity="0.24"/>
</g>
<rect x="417.62" y="79.89" width="281.44" height="51.21" rx="4.53" fill="#fff"/>
<path d="M567.34,107.45a7.74,7.74,0,1,0-11.81-1,1.33,1.33,0,0,0-.49.33l-7.53,7.53a1.46,1.46,0,1,0,2.06,2.06l7.53-7.53a1.42,1.42,0,0,0,.32-.5A7.73,7.73,0,0,0,567.34,107.45Zm-9.59-1.36a5.82,5.82,0,1,1,8.23,0A5.81,5.81,0,0,1,557.75,106.09Z" fill="#2f2e41" data-secondary="true"/>
<path d="M463,95.14H432.91a1.94,1.94,0,0,1-2-1.94h0a2,2,0,0,1,2-2H463a1.94,1.94,0,0,1,1.94,2h0A1.94,1.94,0,0,1,463,95.14Z" fill="#2f2e41" data-secondary="true"/>
<path d="M459.1,106.29H432.91a2,2,0,0,1-2-2h0a1.94,1.94,0,0,1,2-1.94H459.1a1.94,1.94,0,0,1,1.95,1.94h0A2,2,0,0,1,459.1,106.29Z" fill="#2f2e41" data-secondary="true"/>
<path d="M455.21,117.43h-22.3a1.94,1.94,0,0,1-2-1.94h0a2,2,0,0,1,2-1.95h22.3a2,2,0,0,1,2,1.95h0A1.94,1.94,0,0,1,455.21,117.43Z" fill="#2f2e41" data-secondary="true"/>
<rect x="417.62" y="146.26" width="281.44" height="158.84" rx="4.53" fill="#fff"/>
<rect x="453.01" y="166.23" width="210.67" height="118.9" fill="#2f2e41" data-secondary="true"/>
<path d="M599.52,238.28H470.36a3.49,3.49,0,0,1-3.49-3.49h0a3.49,3.49,0,0,1,3.49-3.49H599.52a3.49,3.49,0,0,1,3.49,3.49h0A3.49,3.49,0,0,1,599.52,238.28Z" opacity="0.2"/>
<path d="M589.35,252.93h-119a3.49,3.49,0,0,1-3.49-3.49h0a3.49,3.49,0,0,1,3.49-3.49h119a3.49,3.49,0,0,1,3.49,3.49h0A3.5,3.5,0,0,1,589.35,252.93Z" opacity="0.2"/>
<path d="M534.94,272.54a3,3,0,1,1-3-3A3,3,0,0,1,534.94,272.54Z" fill="#fff"/>
<path d="M552.56,272.54a3,3,0,1,1-3-3A3,3,0,0,1,552.56,272.54Z" fill="#fff"/>
<path d="M570.17,272.54a3,3,0,1,1-3-3A3,3,0,0,1,570.17,272.54Z" fill="#fff"/>
<path d="M587.79,272.54a3,3,0,1,1-3-3A3,3,0,0,1,587.79,272.54Z" fill="#fff"/>
<path d="M675.31,240.34a2.33,2.33,0,0,1-1.81-3.79l8.82-10.87-8.82-10.87a2.32,2.32,0,0,1,3.61-2.93l10,12.34a2.31,2.31,0,0,1,0,2.93l-10,12.33A2.29,2.29,0,0,1,675.31,240.34Z" fill="#2f2e41" data-secondary="true"/>
<path d="M441.38,240.34a2.31,2.31,0,0,1-1.81-.86l-10-12.33a2.33,2.33,0,0,1,0-2.93l10-12.34a2.32,2.32,0,1,1,3.61,2.93l-8.82,10.87,8.82,10.87a2.33,2.33,0,0,1-1.8,3.79Z" fill="#2f2e41" data-secondary="true"/>
<rect x="422.28" y="323.89" width="60.94" height="60.94" rx="8.07" fill="#2f2e41" data-secondary="true"/>
<path d="M452.74,373.13h0A18.76,18.76,0,0,1,434,354.36h0a18.77,18.77,0,0,1,18.76-18.77h0a18.77,18.77,0,0,1,18.77,18.77h0A18.77,18.77,0,0,1,452.74,373.13Z" fill="#fff" opacity="0.5"/>
<path d="M479.72,403.21h-54a3.49,3.49,0,0,1-3.49-3.49h0a3.49,3.49,0,0,1,3.49-3.49h54a3.49,3.49,0,0,1,3.49,3.49h0A3.49,3.49,0,0,1,479.72,403.21Z" fill="#2f2e41" data-secondary="true"/>
<rect x="417.62" y="426.61" width="281.44" height="88.23" rx="4.53" fill="#fff"/>
<rect x="431.58" y="440.56" width="91.52" height="60.32" fill="#2f2e41" data-secondary="true"/>
<path d="M666.37,447.73H537.21a3.49,3.49,0,0,1-3.49-3.49h0a3.49,3.49,0,0,1,3.49-3.49H666.37a3.49,3.49,0,0,1,3.49,3.49h0A3.49,3.49,0,0,1,666.37,447.73Z" fill="#2f2e41" data-secondary="true"/>
<path d="M656.2,462.38h-119a3.49,3.49,0,0,1-3.49-3.49h0a3.49,3.49,0,0,1,3.49-3.49h119a3.49,3.49,0,0,1,3.49,3.49h0A3.49,3.49,0,0,1,656.2,462.38Z" fill="#2f2e41" data-secondary="true"/>
<path d="M662.88,477H537.21a3.49,3.49,0,0,1-3.49-3.49h0a3.49,3.49,0,0,1,3.49-3.49H662.88a3.49,3.49,0,0,1,3.49,3.49h0A3.49,3.49,0,0,1,662.88,477Z" fill="#2f2e41" data-secondary="true"/>
<path d="M640.79,491.68H537.21a3.49,3.49,0,0,1-3.49-3.49h0a3.49,3.49,0,0,1,3.49-3.49H640.79a3.49,3.49,0,0,1,3.49,3.49h0A3.49,3.49,0,0,1,640.79,491.68Z" fill="#2f2e41" data-secondary="true"/>
<rect x="562.99" y="323.89" width="60.94" height="60.94" rx="8.07" fill="#2f2e41" data-secondary="true"/>
<path d="M593.46,373.13h0a18.77,18.77,0,0,1-18.77-18.77h0a18.78,18.78,0,0,1,18.77-18.77h0a18.77,18.77,0,0,1,18.77,18.77h0A18.77,18.77,0,0,1,593.46,373.13Z" fill="#fff" opacity="0.5"/>
<path d="M620.44,403.21h-54a3.49,3.49,0,0,1-3.49-3.49h0a3.49,3.49,0,0,1,3.49-3.49h54a3.49,3.49,0,0,1,3.49,3.49h0A3.49,3.49,0,0,1,620.44,403.21Z" fill="#2f2e41" data-secondary="true"/>
<rect x="633.35" y="323.89" width="60.94" height="60.94" rx="8.07" fill="#2f2e41" data-secondary="true"/>
<path d="M663.82,373.13h0a18.77,18.77,0,0,1-18.77-18.77h0a18.78,18.78,0,0,1,18.77-18.77h0a18.77,18.77,0,0,1,18.77,18.77h0A18.77,18.77,0,0,1,663.82,373.13Z" fill="#fff" opacity="0.5"/>
<path d="M690.8,403.21h-54a3.49,3.49,0,0,1-3.49-3.49h0a3.49,3.49,0,0,1,3.49-3.49h54a3.49,3.49,0,0,1,3.49,3.49h0A3.49,3.49,0,0,1,690.8,403.21Z" fill="#2f2e41" data-secondary="true"/>
<rect x="492.64" y="323.89" width="60.94" height="60.94" rx="8.07" fill="#2f2e41" data-secondary="true"/>
<path d="M550.08,403.21h-54a3.48,3.48,0,0,1-3.48-3.49h0a3.48,3.48,0,0,1,3.48-3.49h54a3.49,3.49,0,0,1,3.49,3.49h0A3.49,3.49,0,0,1,550.08,403.21Z" fill="#2f2e41" data-secondary="true"/>
<path d="M523.1,373.13h0a18.77,18.77,0,0,1-18.77-18.77h0a18.78,18.78,0,0,1,18.77-18.77h0a18.77,18.77,0,0,1,18.77,18.77h0A18.77,18.77,0,0,1,523.1,373.13Z" fill="#fff" opacity="0.5"/>
<path d="M369.75,530.92s10.18-3.15,13.77-2l20.06,9.38s1.74,1.87-2.37,2.67c-3.76.74-8.42-1.83-8.42-1.83l-5.28-.36,2.91,3.71,13.09,7.26s9.53,5,8,6.25-4.63.77-8.74-1.39l-9.33-4.91s-1.66-.74.72,1.79,14,8.14,15.48,9.29,5.72,2.75,4.71,5.16-6.12-.78-6.12-.78l-17.27-8.06s6.51,4.62,7.61,5.45,4.84,2.77,6.74,4.27,2.62,3.13,2.14,4.2a2.18,2.18,0,0,1-2.68,1.3l-14.25-8.53s-6.39-4.26-6.88-4.26,2.07,3.65,2.07,3.65l4.38,3.55s6.58,3.87,6.18,5.84-1.86,1.59-1.86,1.59l-12-7.19-12.87-10.35-10.8-8.27-8-4.4c-.23-.32,10.81-12.37,14.77-15.74Z" fill="#f9b499"/>
<path d="M372.77,543.77a10.51,10.51,0,0,0,3.06,1,7.91,7.91,0,0,0,3.42-.34,7.83,7.83,0,0,0,5-5.29l0-.1.1,0a26,26,0,0,1,5.54-.32c.68,0,1.22.1,1.59.15a1.88,1.88,0,0,1,.56.11c0,.05-.8,0-2.16,0a30,30,0,0,0-5.47.45l.14-.13a8.05,8.05,0,0,1-1.61,3.07,7.84,7.84,0,0,1-3.61,2.45,8.1,8.1,0,0,1-3.55.27,7.59,7.59,0,0,1-2.29-.73l-.56-.33Q372.76,543.79,372.77,543.77Z" fill="#b26763"/>
<path d="M324.39,495.28s-5.42-34.49-4.66-37.93l-35.15,2.36,10.09,52.34,59.92,34.1,12-17Z" fill="#f9b499"/>
<path d="M207.12,377.93s-48,82.48-55.78,123.1l-1.75,7.26a19.35,19.35,0,0,0-6.08,16.34l1.18,10.31L262.23,519,272,491.62,309.57,406l-1.05-4.37-15.75-13.57c-16.91,10.19-26.71.54-36-20.21l-22.92-2.63Z" fill="#0071f2" data-primary="true"/>
<g opacity="0.3">
<path d="M205.5,428.35s-5,46.12,8.35,57S270.78,495,270.78,495l1.19-3.35-58.12-43.51-2.13-20.38Z"/>
</g>
<path d="M337.72,332.42c-1.89-3.6-4.39-7.2-4.27-11.27.1-3.74,2.44-7.41,1.43-11-1.23-4.43-6.84-6.31-8.62-10.56-.86-2.05-.71-4.42-1.56-6.49-1.44-3.51-5.42-5.31-9.19-5.8s-7.62,0-11.36-.65c-5.14-.86-10-3.76-15.17-3.48-5.74.32-10.16,4.27-14.74,8l-5.82,4.23a20,20,0,0,1-3.62,1.73c-2.21.78-4.6,1.1-6.62,2.29a9.19,9.19,0,0,0-2.51,13,9.84,9.84,0,0,0-8.7,7.84c-.41,2.27,0,4.6.17,6.91s0,4.79-1.4,6.63-4.37,2.63-6.06,1.06a10.32,10.32,0,0,0,3.88,8,6.2,6.2,0,0,1-4.48.83c1.79,10.61,11.73,18.35,22.19,20.91s21.43,1,32.07-.6l29.94-.59c2.61,0,4.36-2.74,4.93-5.29s.56-5.34,2-7.49c2-3,6.21-3.78,8.28-6.7C340.89,340.66,339.61,336,337.72,332.42Z" fill="#2f2e41" data-secondary="true"/>
<path d="M264.88,342.21c-.52-6.86-1-13.76-.33-20.61s2.54-13.69,6.4-19.39c.58-.86,5.14-6.5,6.12-6.15.7.24-2.59,5.73-2.38,6.45,2,6.82,1.22,14.23-1,21a93.2,93.2,0,0,1-8.8,18.72" fill="#2f2e41" data-secondary="true"/>
<path d="M305,292.1l-1.53-.46c-16.78-4-29.54,8-33.07,24.91l-15.27,57.37a20.2,20.2,0,0,0,13.31,24.41h0A20.19,20.19,0,0,0,294,385c.92-3,1.56-5.07,1.58-5.06s16.59,2.3,21.55-13.49c2.4-7.63,6.05-23.74,9.19-38.36A30.83,30.83,0,0,0,305,292.1Z" fill="#f9b499"/>
<path d="M295.56,380a40,40,0,0,1-18.81-12.31s1.3,13,17.54,16.37Z" fill="#b26763"/>
<path d="M268.19,328.68c-.23-.2-9.92-6.5-12.83,4.44s8.67,11.61,8.77,11.3S268.19,328.68,268.19,328.68Z" fill="#f9b499"/>
<path d="M323.88,308.12c2-.52-1.83-7.64-5.68-10.74-5.82-4.68-15.42-9.11-21.94-8.94-7.85.19-14.86,2.27-20.24,8s-8.76,13.12-10.5,20.78a13.45,13.45,0,0,0-.17,7.09c.91,2.82,3.45,5.1,2.47,8.41a4.74,4.74,0,0,0,.28,3.64c1.45,2.65,4.42,1.28,6.07-.45,3.51-3.67,5.1-8.73,6.57-13.6,1.05-3.45,2.11-7,2-10.6-.06-2-.48-3.92-.44-5.88a6.81,6.81,0,0,1,2.18-5.28,8,8,0,0,1,1.13-.67,11.79,11.79,0,0,1,11.89.76c5.62,3.77,15.33,9.74,18.62,8.35,4.73-2,6.19-3.72,6.19-3.72Z" fill="#2f2e41" data-secondary="true"/>
<path d="M297.22,287.1c6.54-.47,13.37,1.39,18.26,5.77,2.6,2.32,4.66,5.5,4.74,9s-2.33,7.12-5.78,7.59l-.25.08c-5.08.37-8-1-12.21-3.85-3.58-2.37-6.45-5.68-10-8A23,23,0,0,0,279,293.91,37.44,37.44,0,0,1,297.22,287.1Z" fill="#2f2e41" data-secondary="true"/>
<path d="M200.89,573l-48.59-8L142,625.34c23.36,7.36,22.73-28.65,22.73-28.65l30.92,6.41Z" fill="#3f3d56"/>
<path d="M152.3,564.93l4.86,1-11.67,57.54s-1.63,2.49-3.47,1.87Z" fill="#2f2e41" data-secondary="true"/>
<path d="M243.85,551.23s65.24,34.3,78.33,49.54c6.65,7.74,3.46,33.4-10.94,41.47s-30,0-39.49-2.31S188,610.56,188,610.56l10.36-59.33Z" fill="#2f2e41" data-secondary="true"/>
<g opacity="0.2">
<path d="M243.85,551.23s65.24,34.3,78.33,49.54c6.65,7.74,3.46,33.4-10.94,41.47s-30,0-39.49-2.31S188,610.56,188,610.56l10.36-59.33Z"/>
</g>
<path d="M203.54,583.1,166.89,616l40.69,45.81c21.29-11.57-8.13-35.66-8.13-35.66L223.8,606Z" fill="#3f3d56"/>
<path d="M166.89,616l3.82-3.17,37.59,45.11s.92,2.82-.72,3.87Z" fill="#2f2e41" data-secondary="true"/>
<path d="M278.6,504.73a39.45,39.45,0,0,1,21.9,4.12c3.73,2,7.49,4.52,9.23,8.28,5.61,12.08,7.26,30.4-2.71,40.68-8.4,8.67-85.79,59.58-85.79,59.58l-31.66-25.74,19.88-18.45s-30.07,4.45-41.59-.16-29.07-19.76-23.17-38.1L149,529.7a44.5,44.5,0,0,1,30.19-15.9Z" fill="#2f2e41" data-secondary="true"/>
<path d="M326.78,457.85c.21-.08,11.33,27.55,24.82,61.71s24.26,61.93,24,62S364.33,554,350.83,519.86,326.57,457.93,326.78,457.85Z" fill="#1a2e35"/>
<path d="M334.51,454.8c.22-.09,11.33,27.54,24.82,61.7s24.27,61.94,24.05,62S372.06,551,358.56,516.81,334.3,454.88,334.51,454.8Z" fill="#1a2e35"/>
<path d="M342.25,451.74c.21-.08,11.32,27.55,24.81,61.71s24.27,61.93,24.06,62-11.33-27.54-24.82-61.71S342,451.82,342.25,451.74Z" fill="#1a2e35"/>
<rect x="262.68" y="486.9" width="178.22" height="55.87" rx="4.53" transform="translate(710.91 5.09) rotate(69.51)" stroke-width="0.75" stroke="#1a2e35" stroke-linecap="round" stroke-linejoin="round" fill="#fff"/>
<rect x="314.73" y="437.81" width="38.2" height="57.96" transform="translate(-142.28 146.39) rotate(-20.49)" fill="#2f2e41" data-secondary="true"/>
<path d="M389.37,573.82,360.74,497.2a2.2,2.2,0,0,1,1.3-2.84h0a2.2,2.2,0,0,1,2.84,1.3l28.63,76.61a2.21,2.21,0,0,1-1.3,2.85h0A2.22,2.22,0,0,1,389.37,573.82Z" fill="#3f3d56"/>
<path d="M378.43,571l-26.38-70.58a2.2,2.2,0,0,1,1.3-2.84h0a2.21,2.21,0,0,1,2.84,1.29l26.37,70.59a2.21,2.21,0,0,1-1.29,2.84h0A2.2,2.2,0,0,1,378.43,571Z" fill="#3f3d56"/>
<path d="M371.22,578.25,343.36,503.7a2.21,2.21,0,0,1,1.3-2.85h0a2.22,2.22,0,0,1,2.84,1.3l27.86,74.55a2.21,2.21,0,0,1-1.3,2.84h0A2.2,2.2,0,0,1,371.22,578.25Z" fill="#3f3d56"/>
<path d="M357.63,568.39l-23-61.44A2.21,2.21,0,0,1,336,504.1h0a2.23,2.23,0,0,1,2.85,1.3l23,61.44a2.21,2.21,0,0,1-1.3,2.84h0A2.21,2.21,0,0,1,357.63,568.39Z" fill="#3f3d56"/>
<path d="M376.93,488.46c-.11-2.81-4.92-2.53-6.85-3s-13.33-.8-17-1.38-1.78-1-1.78-1l11.29.56c5,.24,8.18-.69,9.13-2.59s-10.59-2.47-10.59-2.47l-21.45-3.34.94-.1,5.25-1.36s5.74-.29,9.07-2.71c3.62-2.63,1.09-3.67,1.09-3.67l-23.74-.05c-4,.47-11.95,6.22-11.95,6.22L248.88,452.1l2-39.71s-13.59-12-23.69-11.86-17.71,9.86-17.71,9.86l2,42.62c.59,12.87,4,29.89,20.16,32.68L317,497.46l14.25,3.17,17.19,4.25,14.88,1.58s1.6-.28,1.09-2.37-8.53-3.62-8.53-3.62l-5.61-1.6s-4.5-1.54-4-1.76,8.61,1,8.61,1L372.57,500a2.32,2.32,0,0,0,2-2.48c0-1.25-1.45-2.5-4-3.11s-7-.8-8.48-1.11-9.87-1.86-9.87-1.86l20.44,0S377,491.26,376.93,488.46Z" fill="#f9b499"/>
<path d="M206.41,380.05c3.93-15.11,29.23-20.56,39-8.33,3.81,4.79,7.4,14.78,7.4,19.73,0,12.34,0,33.5,0,33.5l-41.33,0a7.53,7.53,0,0,1-8.12-7.41C203.2,407.74,203.51,391.19,206.41,380.05Z" fill="#0071f2" data-primary="true"/>
<g opacity="0.2">
<path d="M206.41,380.05c3.93-15.11,29.23-20.56,39-8.33,3.81,4.79,7.4,14.78,7.4,19.73,0,12.34,0,33.5,0,33.5l-41.33,0a7.53,7.53,0,0,1-8.12-7.41C203.2,407.74,203.51,391.19,206.41,380.05Z"/>
</g>
</svg>